<svg xmlns="http://www.w3.org/2000/svg" viewBox="0 0 500 500"><g id="freepik--background-simple--inject-21"><path d="M135.19,345.78c69.6,30.39,84.19-19.12,136.62-51.56,41.79-25.87,84.32-18.78,116.07-62.48,27.67-38.08,33.79-104.66,6.41-130.67-33.35-31.7-88.46-27.72-127.83,7-30,26.42-48.14,84.94-86.63,93-44.29,9.29-69.29-33.39-110.8-7.33C-7.46,241.71,122.65,340.3,135.19,345.78Z" style="fill:#246F3B"></path><path d="M135.19,345.78c69.6,30.39,84.19-19.12,136.62-51.56,41.79-25.87,84.32-18.78,116.07-62.48,27.67-38.08,33.79-104.66,6.41-130.67-33.35-31.7-88.46-27.72-127.83,7-30,26.42-48.14,84.94-86.63,93-44.29,9.29-69.29-33.39-110.8-7.33C-7.46,241.71,122.65,340.3,135.19,345.78Z" style="fill:#fff;opacity:0.9"></path></g><g id="freepik--complete-list--inject-21"><path d="M75.55,217.49H224.79a17.64,17.64,0,0,1-17.38-16.42l-2.64-44.48H55.54l2.63,44.48A17.64,17.64,0,0,0,75.55,217.49Z" style="fill:#246F3B"></path><path d="M75.55,217.49H224.79a17.64,17.64,0,0,1-17.38-16.42l-2.64-44.48H55.54l2.63,44.48A17.64,17.64,0,0,0,75.55,217.49Z" style="fill:#fff;opacity:0.6000000000000001"></path><path d="M235.85,127H103a15.3,15.3,0,0,0-15.44,16.41L91,201.08a15.28,15.28,0,0,1-15.44,16.41H224.79a15.28,15.28,0,0,0,15.44-16.41l.37,6.24-3.78-63.87A15.28,15.28,0,0,1,252.26,127Z" style="fill:#246F3B"></path><path d="M252.26,127H103a17.62,17.62,0,0,1,17.38,16.41L133.23,360.1H282.46L269.64,143.45A17.64,17.64,0,0,0,252.26,127Z" style="fill:#246F3B"></path><path d="M252.26,127H103a17.62,17.62,0,0,1,17.38,16.41L133.23,360.1H282.46L269.64,143.45A17.64,17.64,0,0,0,252.26,127Z" style="fill:#fff;opacity:0.8"></path><path d="M170.66,188.68H143L141.33,161H169ZM146,185.42h21.17L166,164.25H144.79Z" style="fill:#fff"></path><path d="M174.52,253.79H146.83l-1.64-27.69h27.69Zm-24.63-3.26h21.17l-1.25-21.17H148.64Z" style="fill:#fff"></path><path d="M178.37,318.9H150.68L149,291.21h27.69Zm-24.62-3.26h21.17l-1.26-21.17H152.49Z" style="fill:#fff"></path><rect x="184.18" y="160.99" width="63.66" height="3.26" style="fill:#fff"></rect><rect x="184.9" y="173.21" width="56.18" height="3.26" style="fill:#fff"></rect><rect x="185.62" y="185.42" width="63.66" height="3.26" style="fill:#fff"></rect><rect x="188.03" y="226.1" width="63.66" height="3.26" style="fill:#fff"></rect><rect x="188.75" y="238.32" width="37.37" height="3.26" style="fill:#fff"></rect><rect x="189.48" y="250.53" width="19.29" height="3.26" style="fill:#fff"></rect><rect x="221.31" y="250.53" width="31.83" height="3.26" style="fill:#fff"></rect><rect x="191.88" y="291.21" width="63.66" height="3.26" style="fill:#fff"></rect><rect x="192.61" y="303.43" width="63.66" height="3.26" style="fill:#fff"></rect><rect x="193.33" y="315.64" width="35.21" height="3.26" style="fill:#fff"></rect><path d="M158.63,182.16a2.7,2.7,0,0,1-1.86-.74L150,175a2.71,2.71,0,1,1,3.73-3.94l4.82,4.55,10.85-11.53a2.71,2.71,0,0,1,3.95,3.72l-12.71,13.51a2.67,2.67,0,0,1-1.9.85Z" style="fill:#246F3B"></path><path d="M162.49,247.27a2.68,2.68,0,0,1-1.86-.74l-6.8-6.42a2.71,2.71,0,1,1,3.72-3.94l4.83,4.55,10.84-11.53a2.71,2.71,0,0,1,3.95,3.72l-12.71,13.51a2.66,2.66,0,0,1-1.89.85Z" style="fill:#246F3B"></path><path d="M166.34,312.39a2.69,2.69,0,0,1-1.86-.75l-6.8-6.42a2.71,2.71,0,1,1,3.72-3.94l4.83,4.55,10.85-11.53A2.71,2.71,0,0,1,181,298l-12.71,13.51a2.7,2.7,0,0,1-1.9.85Z" style="fill:#246F3B"></path></g></svg>